<?xml version="1.0" encoding="UTF-8" standalone="no"?><!DOCTYPE svg PUBLIC "-//W3C//DTD SVG 1.1//EN" "http://www.w3.org/Graphics/SVG/1.1/DTD/svg11.dtd"><svg width="100%" height="100%" viewBox="0 0 1354 753" version="1.1" xmlns="http://www.w3.org/2000/svg" xmlns:xlink="http://www.w3.org/1999/xlink" xml:space="preserve" xmlns:serif="http://www.serif.com/" style="fill-rule:evenodd;clip-rule:evenodd;stroke-linejoin:round;stroke-miterlimit:2;"><rect id="Artboard1" x="0" y="0" width="1353.46" height="752.201" style="fill:none;"/><g><path d="M396.033,103.354c2.992,-14.4 16.258,-24.024 30.555,-22.846c-0,-0 41.491,3.376 103.72,8.461c31.115,2.535 67.418,5.498 106.315,8.667c4.864,0.398 9.772,0.796 14.71,1.194l3.7,0.309c0.191,0.014 0.25,0.014 0.545,0.044l0.825,0.118l1.666,0.221l3.331,0.486c2.196,0.428 4.407,0.855 6.603,1.401c2.182,0.589 4.393,1.12 6.545,1.857c17.301,5.542 33.401,16.169 45.481,30.747l2.24,2.755l2.11,2.859c1.299,1.71 2.99,4.393 4.48,6.884l2.52,4.259l0.06,0.089c-0.011,-0.014 -0.011,-0.044 -0.011,-0.059c0.171,0.339 0.841,1.71 0.841,1.71l0.23,0.412l0.46,0.841l0.94,1.695c2.48,4.51 4.99,9.05 7.48,13.589c4.99,9.08 10.02,18.203 15.03,27.327c8.639,15.698 17.28,31.395 25.81,46.915c13.38,24.291 26.5,48.125 39,70.823c31.5,57.247 59.02,107.229 76.38,138.759c-2.08,-0.25 -4.19,-0.49 -6.28,-0.73l-0.12,-0.01l-0.18,-0.03l-4.83,-0.5c-2.771,-0.3 -5.56,-0.58 -8.33,-0.89c-1.38,-0.14 -2.83,-0.29 -4.27,-0.42c-2.73,-0.27 -5.09,-0.5 -7.11,-0.83l-0.38,-0.07l-0.4,-0.06c-6.69,-0.94 -13.42,-1.81 -19.95,-2.67c-2.191,-0.28 -4.38,-0.57 -6.581,-0.85c-6.629,-1.17 -13.279,-2.21 -19.719,-3.25c-2.401,-0.38 -4.79,-0.75 -7.18,-1.15l-6.23,-0.98l-5.97,-1.2l-0.151,-0.03l-0.149,-0.03l-5.7,-1.07c-2.511,-0.49 -5.03,-0.96 -7.55,-1.43l-0.11,-0.03l-0.111,-0.02l-6.809,-1.23l-5.92,-1.08c-4.73,-1.03 -9.44,-2.05 -14.17,-3.08l-0.091,-0.02l-0.099,-0.01l-14.8,-3.12l-7.41,-1.57l-0.071,-0.01l-0.059,-0.02l-1.8,-0.36l-3.391,-0.71l-0.209,-0l-1.35,-0.27c-10.6,-2.119 -21.23,-4.239 -31.87,-6.35l-0.4,-0.09l-0.4,-0.07c-45.998,-8.01 -91.248,-12.469 -134.463,-13.25l-0.767,-0c-10.789,0.06 -21.534,0.12 -32.22,0.17l-0.604,-0l-0.604,0.03c-7.562,0.311 -15.079,0.75 -22.345,1.17c-3.317,0.19 -6.633,0.38 -9.949,0.56l-0.443,0.01l-0.442,0.05c-24.349,1.96 -45.662,4.541 -65.177,7.88c-5.306,0.891 -10.627,1.84 -15.904,2.86l271.958,-129.307c-6.55,-16.625 -13.18,-33.458 -19.798,-50.29c-3.817,-9.684 -7.62,-19.368 -11.423,-29.021c-1.901,-4.82 -3.802,-9.64 -5.689,-14.446l-0.707,-1.797l-0.354,-0.9l-0.162,-0.412c0.088,0.162 0.295,0.589 0.472,0.913l-0.03,-0.088l-0.766,-1.769l-0.384,-0.884c-0.014,-0.029 -0.029,-0.044 -0.029,-0.074l0.044,0.059l0.059,0.118c0.177,0.295 0.649,0.722 0.442,0.339c-0.014,-0.088 -0.029,-0.191 -0.044,-0.309c-0.029,-0.089 -0.059,-0.192 -0.088,-0.295c-0.384,-1.651 -1.519,-3.228 -3.037,-4.466c-0.191,-0.192 -0.413,-0.266 -0.604,-0.457c-0.206,-0.133 -0.442,-0.236 -0.649,-0.398c-0.117,-0.045 -0.235,-0.104 -0.353,-0.162l-0.162,-0.104l-0.089,-0.043c-0.015,-0.03 -0.265,-0.059 -0.383,-0.089l-3.656,-0.767c-4.849,-1.002 -9.654,-2.019 -14.429,-3.007c-38.205,-7.958 -73.874,-15.402 -104.428,-21.77c-61.124,-12.749 -101.879,-21.239 -101.879,-21.239c-15.579,-3.242 -25.587,-18.512 -22.33,-34.092Z" style="fill:#fafafa;fill-rule:nonzero;"/><path d="M1082.78,288.474c-0,58.403 -47.34,105.747 -105.74,105.747c-58.41,-0 -105.75,-47.344 -105.75,-105.747c-0,-58.403 47.34,-105.748 105.75,-105.748c58.4,-0 105.74,47.345 105.74,105.748Z" style="fill:#fafafa;fill-rule:nonzero;"/><path d="M1278.73,401.931c-0,-0 -0.33,1.3 -1.171,3.74c-0.839,2.43 -2.089,6.101 -4.14,10.66c-3.949,9.23 -10.709,22.46 -21.559,38.06c-10.88,15.54 -25.88,33.45 -45.801,51.55c-1.25,1.12 -2.5,2.29 -3.75,3.42c-1.289,1.15 -2.63,2.23 -3.939,3.35c-2.67,2.22 -5.38,4.49 -8.12,6.78c-2.76,2.34 -5.71,4.41 -8.64,6.66c-2.95,2.21 -5.941,4.48 -9.02,6.72c-3.09,2.17 -6.31,4.28 -9.541,6.46c-3.25,2.14 -6.5,4.43 -9.919,6.48c-3.43,2.04 -6.89,4.1 -10.4,6.19c-3.52,2.08 -7.09,4.28 -10.811,6.14c-29.389,15.94 -63.289,29.67 -100.24,39.7c-7.649,2.1 -15.399,4.01 -23.299,5.78c-30.22,6.78 -62.11,11.2 -94.821,13.13c-5.159,0.25 -10.349,0.5 -15.529,0.76c-2.611,0.1 -5.221,0.26 -7.83,0.32c-2.59,0.03 -5.2,0.03 -7.8,0.07c-5.221,-0.01 -10.46,-0.04 -15.71,-0.06c-5.261,-0.05 -10.57,0.06 -15.8,-0.25c-10.51,-0.45 -21.081,-1.1 -31.721,-1.68c-1.899,-0.14 -3.789,-0.31 -5.669,-0.48c-3.39,-0.31 -6.78,-0.67 -10.191,-1.03c-5.289,-0.55 -10.599,-1.1 -15.919,-1.64c-2.66,-0.28 -5.32,-0.58 -7.99,-0.86l-8.18,-1.17c-5.44,-0.83 -10.89,-1.64 -16.34,-2.47c-5.47,-0.87 -10.92,-1.72 -16.41,-2.59c-2.661,-0.53 -5.35,-1.06 -8.03,-1.58c-2.261,-0.44 -4.511,-0.88 -6.78,-1.32c-4.92,-0.99 -9.88,-1.99 -14.81,-2.98c-5.24,-1.08 -10.47,-2.17 -15.71,-3.23c-9.17,-1.94 -18.37,-3.86 -27.553,-5.79c-1.739,-0.34 -3.478,-0.66 -5.203,-1c-35.079,-6.65 -70.218,-11.85 -104.914,-15.19c-9.124,-0.76 -18.203,-1.51 -27.224,-2.28c-9.035,-0.34 -18.011,-0.9 -26.973,-1.37l-3.361,-0.16l-3.331,-0.05c-2.225,-0.03 -4.451,-0.04 -6.677,-0.07c-4.436,-0.09 -8.887,-0.19 -13.295,-0.28c-2.048,-0.03 -4.112,-0.12 -6.146,-0.12l-0.486,-0c-2.182,0.03 -4.378,0.09 -6.574,0.15c-4.377,0.09 -8.74,0.1 -13.103,0.16c-26.796,0.56 -52.914,2.39 -78.089,5.29c-7.547,0.86 -14.99,1.83 -22.36,2.88c-5.173,0.72 -10.317,1.5 -15.402,2.33c-15.978,2.59 -31.469,5.61 -46.385,8.94c-9.625,2.17 -18.999,4.45 -28.123,6.87c-27.842,7.31 -53.253,15.68 -75.671,24.11c-22.345,8.41 -41.727,16.88 -57.602,24.43c-15.918,7.56 -28.343,14.18 -36.789,18.86c-8.431,4.73 -12.882,7.52 -12.882,7.52l-0.265,-0.24c-0,-0 2.255,-4.79 7.517,-13.14c5.262,-8.4 13.545,-20.39 25.528,-34.61c11.954,-14.21 27.607,-30.64 47.373,-47.76c16.773,-14.56 36.538,-29.61 59.252,-44.07c3.979,-2.55 8.047,-5.05 12.189,-7.56c20.517,-12.32 43.245,-24.08 67.904,-34.65c8.814,-3.77 17.879,-7.4 27.164,-10.83c15.58,-5.78 31.793,-11.03 48.552,-15.69c10.096,-2.78 20.384,-5.38 30.849,-7.72c11.497,-2.56 23.185,-4.86 35.05,-6.85c20.311,-3.48 41.108,-5.81 62.215,-7.52c10.539,-0.56 21.181,-1.25 31.867,-1.7c10.671,-0.05 21.416,-0.11 32.19,-0.17c43.054,0.78 86.535,5.3 129.248,12.75c10.63,2.12 21.24,4.23 31.85,6.35l3.97,0.8l0.719,0.13l0.041,-0l1.8,0.37l7.4,1.56c4.94,1.05 9.86,2.08 14.79,3.12c4.93,1.08 9.83,2.14 14.75,3.2c4.42,0.8 8.859,1.61 13.26,2.4c4.43,0.85 8.849,1.68 13.26,2.52l6.579,1.32l6.831,1.09c9.08,1.46 18.16,2.86 27.16,4.43c9.009,1.18 17.97,2.32 26.889,3.59c4.461,0.73 8.87,1.03 13.311,1.51c4.4,0.48 8.83,0.93 13.22,1.4c2.19,0.24 4.39,0.49 6.589,0.76c2.191,0.2 4.361,0.32 6.541,0.5c4.35,0.32 8.7,0.63 13,0.96c1.17,0.08 2.329,0.16 3.48,0.23c19.63,1.34 38.84,2.02 57.56,2.02c9.25,-0 18.39,-0.16 27.38,-0.5c3.7,-0.13 7.36,-0.3 11,-0.5c31.539,-1.65 61.25,-5.46 88.57,-10.98c1.68,-0.31 3.3,-0.65 4.93,-1.02c1.73,-0.4 3.45,-0.8 5.18,-1.18c3.33,-0.77 6.65,-1.53 9.9,-2.27c1.959,-0.51 3.91,-1.02 5.85,-1.5c4.46,-1.17 8.859,-2.36 13.2,-3.52c3.08,-0.95 6.11,-1.88 9.1,-2.78c3.01,-0.94 6.05,-1.74 8.89,-2.8c2.919,-1 5.78,-1.96 8.61,-2.91c1.429,-0.49 2.84,-0.96 4.23,-1.45c1.39,-0.54 2.73,-1.06 4.079,-1.58c21.831,-8.1 40.651,-16.95 55.951,-25.2c15.29,-8.24 26.96,-15.93 34.94,-21.42c3.95,-2.769 6.94,-4.99 8.96,-6.539c1.99,-1.551 3.019,-2.401 3.019,-2.401l0.311,0.19Z" style="fill:#fafafa;fill-rule:nonzero;"/></g></svg>