<?xml version="1.0" encoding="UTF-8" standalone="no"?><!DOCTYPE svg PUBLIC "-//W3C//DTD SVG 1.1//EN" "http://www.w3.org/Graphics/SVG/1.1/DTD/svg11.dtd"><svg width="100%" height="100%" viewBox="0 0 158 156" version="1.1" xmlns="http://www.w3.org/2000/svg" xmlns:xlink="http://www.w3.org/1999/xlink" xml:space="preserve" xmlns:serif="http://www.serif.com/" style="fill-rule:evenodd;clip-rule:evenodd;stroke-linecap:round;stroke-linejoin:round;stroke-miterlimit:1.5;"><rect id="Artboard2" x="-0" y="0" width="157.587" height="155.745" style="fill:none;"/><g><path d="M27.18,128.607c-0,-0 20.838,12.637 74.306,-15.434c0,0 45.072,-20.087 44.852,-40.517c-0,0 -30.464,-24.491 -65.429,-11.091c-34.965,13.4 -58.938,53.924 -53.704,67.114" style="fill:#d5d5d5;stroke:#000;stroke-width:1.07px;"/><path d="M27.18,128.607c-0,-0 -36.034,-61.21 -6.493,-94.333c5.336,-5.983 16.911,-17.091 36.085,-22.711c32.062,-9.395 77.138,-4.129 89.566,61.093c-13.411,-0.386 -26.162,1.466 -35.71,2.23c-9.547,0.764 -81.348,12.546 -83.448,53.721Z" style="fill:#fff;stroke:#000;stroke-width:1.07px;"/><path d="M134.307,72.656c-2.482,-34.372 -37.619,-62.35 -37.619,-62.35c-16.051,-4.198 -30.932,-1.894 -45.336,3.058c-0,0 45.577,13.371 49.849,62.922c-0,-0 29.903,-4.113 33.106,-3.63" style="fill:#536984;stroke:#000;stroke-width:1.07px;"/></g></svg>