<?xml version="1.0" encoding="UTF-8" standalone="no"?><!DOCTYPE svg PUBLIC "-//W3C//DTD SVG 1.1//EN" "http://www.w3.org/Graphics/SVG/1.1/DTD/svg11.dtd"><svg width="100%" height="100%" viewBox="0 0 101 80" version="1.1" xmlns="http://www.w3.org/2000/svg" xmlns:xlink="http://www.w3.org/1999/xlink" xml:space="preserve" xmlns:serif="http://www.serif.com/" style="fill-rule:evenodd;clip-rule:evenodd;stroke-linecap:round;stroke-linejoin:round;stroke-miterlimit:1.5;"><rect id="Artboard2" x="-0" y="-0" width="100.041" height="79.265" style="fill:none;"/><g><path d="M7.167,14.117l83.581,0" style="fill:none;stroke:#000;stroke-width:1.07px;"/><path d="M64.808,9.566l-0.001,0c-0.894,0 -1.752,0.355 -2.384,0.988c-0.632,0.632 -0.988,1.49 -0.988,2.384l0,44.051c0,0.724 -0.287,1.418 -0.799,1.929c-0.512,0.512 -1.206,0.8 -1.93,0.8l-37.81,-0c-1.581,-0 -2.862,-1.282 -2.862,-2.863c-0,-7.571 -0,-28.451 -0,-41.713c-0,-3.07 1.219,-6.013 3.389,-8.184c2.17,-2.17 5.114,-3.389 8.183,-3.389l34.618,-0c2.972,-0 5.823,1.181 7.925,3.282c2.101,2.102 3.282,4.952 3.282,7.925l-0,54.242c-0,1.293 -1.048,2.341 -2.341,2.341c-7.478,-0 -30.749,-0 -38.473,-0c-1.393,-0 -2.521,-1.129 -2.521,-2.521c-0,-3.423 -0,-9.12 -0,-9.12l26.54,-0c1.546,-0 2.799,-1.254 2.799,-2.8l0,-47.352l3.373,0Z" style="fill:#516984;stroke:#000;stroke-width:1.07px;"/><path d="M61.538,14.117l29.21,0" style="fill:none;stroke:#000;stroke-width:1.07px;"/><path d="M17.97,46.099l43.406,0" style="fill:none;stroke:#000;stroke-width:1.07px;"/><path d="M17.97,37.219l43.406,0" style="fill:none;stroke:#000;stroke-width:1.07px;"/><path d="M61.482,49.869l14.032,0" style="fill:none;stroke:#000;stroke-width:1.07px;"/><path d="M61.355,57.77l14.032,0" style="fill:none;stroke:#000;stroke-width:1.07px;"/></g></svg>