<?xml version="1.0" encoding="UTF-8" standalone="no"?><!DOCTYPE svg PUBLIC "-//W3C//DTD SVG 1.1//EN" "http://www.w3.org/Graphics/SVG/1.1/DTD/svg11.dtd"><svg width="100%" height="100%" viewBox="0 0 199 68" version="1.1" xmlns="http://www.w3.org/2000/svg" xmlns:xlink="http://www.w3.org/1999/xlink" xml:space="preserve" xmlns:serif="http://www.serif.com/" style="fill-rule:evenodd;clip-rule:evenodd;stroke-linecap:round;stroke-linejoin:round;stroke-miterlimit:1.5;"><rect id="Artboard4" x="0" y="0" width="198.553" height="67.471" style="fill:none;"/><g><path d="M89.427,23.499l20.536,0" style="fill:none;stroke:#000;stroke-width:3.18px;"/><path d="M89.427,37.084l20.536,-0" style="fill:none;stroke:#000;stroke-width:3.18px;"/><path d="M171.808,24.232c0,-0 17.421,-3.194 18.355,4.747c0.935,7.941 -13.62,5.596 -15.403,8.154c-3.581,5.139 -18.277,17.638 -36.123,17.906c-20.709,0.312 -30.674,-12.612 -30.207,-25.38c0.467,-12.767 13.338,-17.335 35.812,-17.231c16.895,0.078 30.051,2.284 30.518,24.705" style="fill:none;stroke:#000;stroke-width:3.18px;"/><path d="M26.745,24.232c0,-0 -17.42,-3.194 -18.354,4.747c-0.934,7.941 13.62,5.596 15.403,8.154c3.581,5.139 18.277,17.638 36.123,17.906c20.709,0.312 30.674,-12.612 30.207,-25.38c-0.467,-12.767 -13.339,-17.335 -35.812,-17.231c-16.895,0.078 -30.051,2.284 -30.518,24.705" style="fill:none;stroke:#000;stroke-width:3.18px;"/></g></svg>