<?xml version="1.0" encoding="UTF-8" standalone="no"?><!DOCTYPE svg PUBLIC "-//W3C//DTD SVG 1.1//EN" "http://www.w3.org/Graphics/SVG/1.1/DTD/svg11.dtd"><svg width="100%" height="100%" viewBox="0 0 366 167" version="1.1" xmlns="http://www.w3.org/2000/svg" xmlns:xlink="http://www.w3.org/1999/xlink" xml:space="preserve" xmlns:serif="http://www.serif.com/" style="fill-rule:evenodd;clip-rule:evenodd;stroke-linecap:round;stroke-linejoin:round;stroke-miterlimit:1.5;"><rect id="Artboard3" x="0" y="-0" width="365.401" height="166.727" style="fill:none;"/><g id="Zwembril"><path d="M166.297,63.526l32.36,0" style="fill:none;stroke:#000;stroke-width:5.01px;"/><path d="M166.297,84.932l32.36,0" style="fill:none;stroke:#000;stroke-width:5.01px;"/><path d="M296.112,64.68c0,0 27.451,-5.032 28.923,7.481c1.473,12.513 -21.462,8.818 -24.271,12.849c-5.643,8.097 -28.801,27.793 -56.923,28.216c-32.633,0.491 -48.336,-19.874 -47.6,-39.993c0.736,-20.119 21.019,-27.317 56.433,-27.153c26.622,0.123 47.354,3.599 48.09,38.93" style="fill:none;stroke:#000;stroke-width:5.01px;"/><path d="M67.524,64.68c0,0 -27.451,-5.032 -28.923,7.481c-1.472,12.513 21.462,8.818 24.272,12.849c5.643,8.097 28.801,27.793 56.923,28.216c32.632,0.491 48.335,-19.874 47.599,-39.993c-0.736,-20.119 -21.019,-27.317 -56.432,-27.153c-26.622,0.123 -47.354,3.599 -48.09,38.93" style="fill:none;stroke:#000;stroke-width:5.01px;"/></g></svg>