<?xml version="1.0" encoding="UTF-8" standalone="no"?><!DOCTYPE svg PUBLIC "-//W3C//DTD SVG 1.1//EN" "http://www.w3.org/Graphics/SVG/1.1/DTD/svg11.dtd"><svg width="100%" height="100%" viewBox="0 0 2251 1701" version="1.1" xmlns="http://www.w3.org/2000/svg" xmlns:xlink="http://www.w3.org/1999/xlink" xml:space="preserve" xmlns:serif="http://www.serif.com/" style="fill-rule:evenodd;clip-rule:evenodd;stroke-linecap:round;stroke-linejoin:round;stroke-miterlimit:1.5;"><g><path d="M198.372,316.455l847.111,146.334l540.902,-0l467.298,-146.334l-3.52,-33.019l-216.774,-74.367c0,-0 -195.788,-63.224 -210.065,-64.243c-14.277,-1.02 -193.75,-19.376 -193.75,-19.376l-119.309,-16.316l-145.249,-22.178l-562.994,22.178l-400.636,174.302" style="fill:#fbf9fa;stroke:#000;stroke-width:0.96px;"/><path d="M1190.66,203.708c8.446,-7.067 14.943,-16.175 18.876,-26.459c2.299,-14.119 -3.652,-28.317 -15.336,-36.571c-14.895,-10.112 -32.56,-15.355 -50.56,-14.999l-1.516,-0c-11.831,-0.926 -23.643,1.97 -33.706,8.257c-16.853,11.966 -15.674,38.426 -5.731,55.953c12.33,18.631 28.759,34.197 48.032,45.503c14.208,-9.381 27.571,-19.984 39.941,-31.684Z" style="fill-rule:nonzero;"/><path d="M1104.54,258.986c-11.628,-4.55 -23.426,-8.932 -35.56,-12.639c-80.894,-24.606 -169.541,-23.258 -252.795,-17.696c-6.269,35.248 -37.87,60.266 -73.617,58.278c-35.747,-1.986 -64.382,-30.354 -66.704,-66.083c-2.322,-35.725 22.399,-67.562 57.588,-74.161c35.189,-6.598 69.764,14.119 80.543,48.259c85.949,-5.729 178.305,-7.078 264.423,18.876c-1.685,-2.359 -3.539,-4.719 -5.056,-7.247c-16.853,-30.841 -16.853,-76.513 15,-99.769c16.998,-11.311 37.275,-16.648 57.637,-15.169c24.893,-0.149 49.2,7.577 69.434,22.078c22.875,16.385 33.811,44.81 27.808,72.3c-4.495,14.066 -12.569,26.729 -23.426,36.739c69.67,-14.235 140.768,-20.283 211.842,-18.032c5.565,-35.553 36.811,-61.342 72.772,-60.073c35.959,1.267 65.307,29.197 68.355,65.05c3.048,35.855 -21.164,68.336 -56.398,75.658c-35.23,7.318 -70.378,-12.831 -81.864,-46.929c-81.947,-3.146 -163.916,5.595 -243.358,25.953c30.883,18.965 60.395,40.084 88.311,63.199c257.514,-4.158 514.409,-18.875 770.687,-44.156c-3.203,-38.256 -6.404,-81.736 -9.775,-125.217c-2.697,-36.739 -5.393,-73.479 -8.09,-107.016c-0.235,-4.735 -2.452,-9.146 -6.112,-12.161c-3.655,-3.014 -8.411,-4.352 -13.099,-3.682c-590.163,57.132 -1184.46,57.132 -1774.62,0c-4.678,-0.58 -9.385,0.829 -12.977,3.877c-3.536,3.041 -5.768,7.325 -6.235,11.966c-2.696,33.705 -5.393,69.603 -8.09,106.005c-3.202,43.817 -6.404,87.804 -9.775,126.228c261.053,25.449 523.791,40.111 786.698,44.156c35.631,-27.89 74.786,-50.952 116.455,-68.592l0.002,-0Z" style="fill-rule:nonzero;"/><path d="M1491.32,240.785c-6.405,0 -12.472,0 -18.707,-0.843c10.898,12.999 29.253,16.894 44.495,9.445c15.239,-7.452 23.438,-24.331 19.872,-40.915c-3.566,-16.583 -17.977,-28.605 -34.935,-29.133c-16.953,-0.528 -32.087,10.568 -36.679,26.898l27.976,1.348c9.306,0.557 16.4,8.557 15.842,17.864c-0.558,9.306 -8.558,16.399 -17.864,15.841l-0,-0.505Z" style="fill-rule:nonzero;"/><path d="M1225.04,327.578c-24.991,-18.415 -51.296,-34.976 -78.703,-49.549c-35.477,13.053 -69.389,30.01 -101.118,50.56c60.109,0.224 120.05,-0.112 179.821,-1.011Z" style="fill-rule:nonzero;"/><path d="M756.863,199.327l21.572,-1.686c-8.599,-14.602 -26.07,-21.426 -42.29,-16.524c-16.22,4.907 -26.984,20.265 -26.051,37.186c0.929,16.92 13.314,31.009 29.973,34.103c16.658,3.097 33.275,-5.603 40.222,-21.059l-20.729,1.517c-9.307,0.745 -17.456,-6.198 -18.202,-15.505c-0.745,-9.307 6.198,-17.456 15.505,-18.201l-0,0.169Z" style="fill-rule:nonzero;"/><path d="M2053.7,316.455c-244.03,24.044 -488.96,38.593 -734.789,43.649c24.605,21.403 48.03,43.313 70.782,64.547c3.629,2.94 5.873,7.258 6.198,11.917c0.326,4.659 -1.3,9.242 -4.483,12.658c-3.183,3.419 -7.64,5.364 -12.31,5.368c-4.67,0.006 -9.134,-1.926 -12.325,-5.338c-31.178,-28.987 -64.041,-59.491 -98.927,-88.14c-47.358,-0 -94.714,1.179 -142.071,1.179c-41.795,-0 -84.266,-0 -125.555,-0.843c-24.092,19.64 -45.559,42.297 -63.873,67.413c-3.179,4.467 -8.336,7.108 -13.819,7.077c-3.513,-0.022 -6.928,-1.142 -9.775,-3.201c-7.509,-5.42 -9.239,-15.88 -3.876,-23.426c12.771,-17.187 26.976,-33.253 42.47,-48.032c-251.784,-5.279 -502.781,-20.223 -752.992,-44.828l-151.677,1152.07c-0.768,6.064 3.153,11.731 9.1,13.146l865.064,183.36c5.641,1.401 11.434,-1.644 13.483,-7.078l177.63,-431.268c2.585,-6.291 8.701,-10.415 15.505,-10.448c6.865,-0.034 13.063,4.096 15.674,10.448l165.159,401.438c9.251,22.639 33.376,35.415 57.3,30.336l798.327,-168.53c26.339,-5.352 43.885,-30.376 39.941,-56.964l-150.161,-1116.51Z" style="fill-rule:nonzero;"/></g></svg>