<?xml version="1.0" encoding="UTF-8" standalone="no"?><!DOCTYPE svg PUBLIC "-//W3C//DTD SVG 1.1//EN" "http://www.w3.org/Graphics/SVG/1.1/DTD/svg11.dtd"><svg width="100%" height="100%" viewBox="0 0 205 164" version="1.1" xmlns="http://www.w3.org/2000/svg" xmlns:xlink="http://www.w3.org/1999/xlink" xml:space="preserve" xmlns:serif="http://www.serif.com/" style="fill-rule:evenodd;clip-rule:evenodd;stroke-linecap:round;stroke-linejoin:round;stroke-miterlimit:1.5;"><rect id="Artboard1" x="0" y="0" width="204.772" height="163.476" style="fill:none;"/><g><path d="M35.564,43.263l61.055,10.547l38.985,0l33.681,-10.547l-0.254,-2.38l-15.624,-5.36c0,0 -14.111,-4.556 -15.14,-4.63c-1.029,-0.073 -13.965,-1.396 -13.965,-1.396l-8.599,-1.176l-10.469,-1.599l-40.577,1.599l-28.876,12.562" style="fill:#fbf9fa;stroke:#000;stroke-width:0.07px;"/><path d="M107.083,35.137c0.608,-0.509 1.077,-1.166 1.36,-1.907c0.166,-1.018 -0.263,-2.041 -1.105,-2.636c-1.074,-0.729 -2.347,-1.107 -3.644,-1.081l-0.11,0c-0.852,-0.067 -1.704,0.142 -2.429,0.595c-1.215,0.863 -1.13,2.77 -0.413,4.033c0.889,1.343 2.073,2.465 3.462,3.28c1.024,-0.677 1.987,-1.441 2.879,-2.284Z" style="fill-rule:nonzero;"/><path d="M100.876,39.121c-0.839,-0.328 -1.689,-0.644 -2.563,-0.911c-5.831,-1.773 -12.22,-1.676 -18.221,-1.275c-0.451,2.54 -2.729,4.343 -5.306,4.2c-2.576,-0.143 -4.64,-2.188 -4.807,-4.763c-0.168,-2.575 1.614,-4.869 4.15,-5.345c2.537,-0.476 5.029,1.018 5.806,3.478c6.194,-0.413 12.851,-0.51 19.058,1.361c-0.122,-0.17 -0.255,-0.34 -0.365,-0.523c-1.214,-2.222 -1.214,-5.514 1.081,-7.19c1.226,-0.816 2.687,-1.2 4.155,-1.094c1.794,-0.01 3.546,0.546 5.004,1.592c1.649,1.181 2.437,3.229 2.004,5.211c-0.324,1.013 -0.906,1.926 -1.688,2.648c5.021,-1.026 10.146,-1.462 15.268,-1.3c0.402,-2.563 2.654,-4.421 5.245,-4.33c2.592,0.091 4.707,2.105 4.927,4.689c0.22,2.584 -1.525,4.925 -4.065,5.453c-2.539,0.527 -5.072,-0.925 -5.9,-3.383c-5.906,-0.226 -11.814,0.404 -17.54,1.871c2.226,1.367 4.353,2.889 6.365,4.555c18.56,-0.3 37.076,-1.361 55.547,-3.183c-0.231,-2.757 -0.462,-5.891 -0.704,-9.025c-0.195,-2.648 -0.389,-5.296 -0.584,-7.713c-0.017,-0.341 -0.176,-0.659 -0.44,-0.876c-0.264,-0.218 -0.606,-0.314 -0.944,-0.266c-42.536,4.118 -85.37,4.118 -127.906,0c-0.337,-0.041 -0.676,0.06 -0.935,0.28c-0.255,0.219 -0.416,0.528 -0.449,0.862c-0.195,2.429 -0.389,5.017 -0.583,7.64c-0.231,3.159 -0.462,6.329 -0.705,9.098c18.815,1.835 37.752,2.891 56.701,3.183c2.568,-2.01 5.39,-3.672 8.394,-4.944l-0,0l-0,0Z" style="fill-rule:nonzero;"/><path d="M128.753,37.809c-0.462,0 -0.899,0 -1.349,-0.06c0.786,0.936 2.109,1.217 3.207,0.68c1.099,-0.537 1.69,-1.753 1.433,-2.949c-0.257,-1.195 -1.296,-2.061 -2.518,-2.099c-1.222,-0.038 -2.313,0.761 -2.644,1.938l2.016,0.097c0.671,0.041 1.182,0.617 1.142,1.288c-0.04,0.671 -0.617,1.182 -1.287,1.142l-0,-0.037Z" style="fill-rule:nonzero;"/><path d="M109.561,44.065c-1.802,-1.327 -3.698,-2.521 -5.673,-3.571c-2.557,0.94 -5.001,2.163 -7.288,3.644c4.332,0.016 8.653,-0.008 12.961,-0.073Z" style="fill-rule:nonzero;"/><path d="M75.817,34.821l1.555,-0.121c-0.62,-1.053 -1.879,-1.545 -3.048,-1.191c-1.17,0.353 -1.945,1.46 -1.878,2.68c0.067,1.219 0.959,2.235 2.16,2.458c1.201,0.223 2.398,-0.404 2.899,-1.518l-1.494,0.109c-0.671,0.054 -1.258,-0.446 -1.312,-1.117c-0.053,-0.671 0.447,-1.258 1.118,-1.312l-0,0.012Z" style="fill-rule:nonzero;"/><path d="M169.286,43.263c-17.588,1.733 -35.242,2.782 -52.96,3.146c1.774,1.543 3.462,3.122 5.102,4.652c0.261,0.212 0.423,0.524 0.447,0.859c0.023,0.336 -0.094,0.666 -0.324,0.913c-0.229,0.246 -0.55,0.386 -0.887,0.387c-0.336,-0 -0.658,-0.139 -0.888,-0.385c-2.247,-2.089 -4.616,-4.288 -7.13,-6.353c-3.414,0 -6.827,0.085 -10.24,0.085c-3.012,0 -6.073,0 -9.049,-0.061c-1.737,1.416 -3.284,3.049 -4.604,4.859c-0.229,0.322 -0.601,0.512 -0.996,0.51c-0.253,-0.001 -0.499,-0.082 -0.705,-0.231c-0.541,-0.39 -0.665,-1.144 -0.279,-1.688c0.921,-1.239 1.944,-2.397 3.061,-3.462c-18.147,-0.38 -36.238,-1.457 -54.272,-3.231l-10.932,83.035c-0.055,0.437 0.228,0.846 0.656,0.948l62.35,13.216c0.406,0.101 0.824,-0.119 0.971,-0.511l12.803,-31.083c0.186,-0.454 0.627,-0.751 1.117,-0.753c0.495,-0.003 0.942,0.295 1.13,0.753l11.904,28.933c0.667,1.632 2.406,2.553 4.13,2.187l57.539,-12.147c1.899,-0.386 3.163,-2.189 2.879,-4.106l-10.823,-80.472Z" style="fill-rule:nonzero;"/></g></svg>