<?xml version="1.0" encoding="UTF-8" standalone="no"?><!DOCTYPE svg PUBLIC "-//W3C//DTD SVG 1.1//EN" "http://www.w3.org/Graphics/SVG/1.1/DTD/svg11.dtd"><svg width="100%" height="100%" viewBox="0 0 2251 1701" version="1.1" xmlns="http://www.w3.org/2000/svg" xmlns:xlink="http://www.w3.org/1999/xlink" xml:space="preserve" xmlns:serif="http://www.serif.com/" style="fill-rule:evenodd;clip-rule:evenodd;stroke-linecap:round;stroke-linejoin:round;stroke-miterlimit:1.5;"><g><g><g><clipPath id="_clip1"><rect x="0" y="0" width="2251" height="1701"/></clipPath><g clip-path="url(#_clip1)"><path d="M158.221,293.477l883.559,152.63l564.176,-0l487.404,-152.63l-3.671,-34.44l-226.101,-77.567c-0,0 -204.213,-65.944 -219.104,-67.007c-14.891,-1.064 -202.086,-20.209 -202.086,-20.209l-124.443,-17.018l-151.498,-23.133l-587.218,23.133l-417.874,181.801" style="fill:#fbf9fa;stroke:#000;stroke-width:1px;"/><path d="M1193.2,175.879c8.809,-7.371 15.586,-16.871 19.688,-27.598c2.398,-14.726 -3.809,-29.535 -15.996,-38.144c-15.536,-10.547 -33.961,-16.016 -52.735,-15.645l-1.582,0c-12.34,-0.965 -24.66,2.055 -35.156,8.613c-17.578,12.481 -16.348,40.079 -5.977,58.36c12.86,19.433 29.996,35.668 50.098,47.461c14.82,-9.785 28.758,-20.844 41.66,-33.047Z" style="fill-rule:nonzero;"/><path d="M1103.38,233.535c-12.129,-4.746 -24.434,-9.316 -37.09,-13.183c-84.375,-25.664 -176.836,-24.258 -263.672,-18.457c-6.539,36.765 -39.5,62.859 -76.785,60.785c-37.285,-2.071 -67.152,-31.66 -69.574,-68.926c-2.422,-37.262 23.363,-70.469 60.066,-77.352c36.703,-6.882 72.766,14.727 84.008,50.336c89.648,-5.976 185.977,-7.383 275.801,19.688c-1.758,-2.461 -3.692,-4.922 -5.274,-7.559c-17.578,-32.168 -17.578,-79.805 15.645,-104.062c17.73,-11.797 38.879,-17.364 60.117,-15.821c25.965,-0.156 51.317,7.903 72.422,23.028c23.859,17.09 35.266,46.738 29.004,75.41c-4.688,14.672 -13.109,27.879 -24.434,38.32c72.668,-14.847 146.825,-21.156 220.957,-18.808c5.805,-37.082 38.395,-63.981 75.903,-62.657c37.507,1.321 68.117,30.453 71.297,67.848c3.179,37.398 -22.075,71.277 -58.825,78.914c-36.746,7.633 -73.406,-13.383 -85.386,-48.949c-85.473,-3.281 -170.969,5.836 -253.829,27.07c32.211,19.781 62.993,41.809 92.11,65.918c268.594,-4.336 536.543,-19.687 803.848,-46.055c-3.341,-39.902 -6.68,-85.253 -10.196,-130.605c-2.813,-38.32 -5.625,-76.641 -8.438,-111.621c-0.245,-4.938 -2.558,-9.539 -6.375,-12.684c-3.812,-3.144 -8.773,-4.539 -13.663,-3.84c-615.555,59.59 -1235.42,59.59 -1850.98,0c-4.879,-0.605 -9.789,0.864 -13.535,4.043c-3.688,3.172 -6.016,7.641 -6.504,12.481c-2.812,35.156 -5.625,72.598 -8.438,110.566c-3.339,45.703 -6.679,91.582 -10.195,131.66c272.285,26.543 546.328,41.836 820.547,46.055c37.164,-29.09 78.004,-53.144 121.465,-71.543l0.003,0Z" style="fill-rule:nonzero;"/><path d="M1506.8,214.551c-6.68,-0 -13.008,-0 -19.512,-0.879c11.367,13.558 30.512,17.621 46.41,9.851c15.895,-7.773 24.446,-25.378 20.727,-42.675c-3.719,-17.297 -18.75,-29.836 -36.438,-30.387c-17.683,-0.551 -33.468,11.023 -38.257,28.055l29.179,1.406c9.707,0.582 17.106,8.926 16.524,18.633c-0.582,9.707 -8.926,17.105 -18.633,16.523l0,-0.527Z" style="fill-rule:nonzero;"/><path d="M1229.06,305.078c-26.066,-19.207 -53.503,-36.48 -82.089,-51.68c-37.004,13.614 -72.375,31.301 -105.469,52.735c62.695,0.234 125.215,-0.117 187.558,-1.055Z" style="fill-rule:nonzero;"/><path d="M740.742,171.309l22.5,-1.758c-8.969,-15.231 -27.191,-22.348 -44.109,-17.235c-16.918,5.118 -28.145,21.137 -27.172,38.786c0.969,17.648 13.887,32.343 31.262,35.57c17.375,3.23 34.707,-5.844 41.953,-21.965l-21.621,1.582c-9.707,0.777 -18.207,-6.465 -18.985,-16.172c-0.777,-9.707 6.465,-18.207 16.172,-18.984l0,0.176Z" style="fill-rule:nonzero;"/><path d="M2093.38,293.477c-254.53,25.078 -509.999,40.253 -766.405,45.527c25.664,22.324 50.097,45.176 73.828,67.324c3.785,3.067 6.125,7.57 6.465,12.43c0.339,4.859 -1.356,9.64 -4.676,13.203c-3.32,3.566 -7.969,5.594 -12.84,5.598c-4.871,0.007 -9.527,-2.008 -12.855,-5.567c-32.52,-30.234 -66.797,-62.051 -103.184,-91.933c-49.395,-0 -98.789,1.23 -148.184,1.23c-43.593,-0 -87.891,-0 -130.957,-0.879c-25.129,20.485 -47.519,44.117 -66.621,70.313c-3.316,4.66 -8.695,7.414 -14.414,7.382c-3.664,-0.023 -7.226,-1.191 -10.195,-3.339c-7.832,-5.653 -9.637,-16.563 -4.043,-24.434c13.32,-17.926 28.137,-34.684 44.297,-50.098c-262.617,-5.507 -524.414,-21.093 -785.391,-46.757l-158.203,1201.64c-0.801,6.324 3.289,12.235 9.492,13.711l902.285,191.25c5.883,1.461 11.926,-1.715 14.063,-7.383l185.273,-449.824c2.696,-6.562 9.075,-10.863 16.172,-10.898c7.16,-0.035 13.625,4.273 16.348,10.898l172.265,418.711c9.649,23.613 34.813,36.938 59.766,31.641l832.676,-175.782c27.472,-5.582 45.773,-31.683 41.66,-59.414l-156.622,-1164.55Z" style="fill-rule:nonzero;"/></g></g></g></g></svg>